<svg width="251" height="171" viewBox="0 0 251 171" fill="none" xmlns="http://www.w3.org/2000/svg">
<g opacity="0.56">
<path d="M0.871625 136.719C0.953398 137.057 1.02464 137.383 1.11646 137.721C2.49363 143.126 5.17674 148.92 9.32858 155L30.2719 154.939H31.3737L144.363 154.622H145.679L167.571 154.561L168.989 154.55L238.521 154.356C238.521 154.356 256.579 133.082 232.401 113.176C221.067 103.857 205.836 105.298 194.237 104.092C193.737 104.031 193.238 103.98 192.748 103.908C180.455 102.304 172.876 96.8372 179.864 70.0142C180.823 66.3356 181.18 62.6263 180.986 58.9681C180.966 58.4572 180.925 57.9464 180.874 57.4353C178.558 32.5435 151.31 11.0544 119.911 23.7762C119.339 24.0011 118.768 24.2463 118.197 24.5006C111.26 27.5774 104.139 32.3289 97.0597 39.0936C91.1328 44.7545 85.9711 49.8739 81.3905 54.5231C80.8702 55.0545 80.3603 55.5757 79.8503 56.0968C57.7949 78.6589 50.1848 89.5823 38.4023 95.9993C38.086 96.1628 37.7799 96.3365 37.4536 96.5C34.0362 98.2577 30.2514 99.6678 25.6507 100.894C20.6929 102.212 16.3472 104.113 12.7153 106.504C12.4093 106.708 12.1135 106.912 11.8278 107.117C2.31001 113.83 -1.98458 124.171 0.871625 136.719V136.719Z" fill="#E4EBF7" fill-opacity="0.8"/>
<path d="M11.3933 107.13C26.9607 119.647 40.9873 125.952 53.3003 125.952C56.3811 125.952 59.3599 125.553 62.2264 124.766C80.65 119.698 94.585 98.4336 103.634 61.5863C107.643 45.2065 113.345 32.9446 119.476 23.7888C118.905 24.0137 118.334 24.2589 117.762 24.5144C111.917 33.619 106.51 45.6051 102.644 61.3411C93.6872 97.8105 79.9972 118.819 61.9612 123.785C48.0161 127.617 31.3573 121.813 12.2808 106.516C11.9748 106.721 11.679 106.925 11.3933 107.13V107.13Z" fill="white"/>
<path d="M37.4337 96.4975C42.1264 101.065 46.6761 103.364 51.0525 103.364C52.0421 103.364 53.0214 103.242 54.0007 103.007C67.1501 99.8185 76.0049 75.887 81.3707 54.5205C80.8504 55.0519 80.3404 55.5731 79.8304 56.0942C74.4645 76.725 65.9362 99.0622 53.7559 102.015C48.9205 103.18 43.7687 101.167 38.3824 95.9967C38.0661 96.1603 37.7601 96.3339 37.4337 96.4975V96.4975Z" fill="white"/>
<path d="M144.121 154.63H145.437C136.939 144.157 132.696 132.927 132.971 121.319C133.481 99.85 149.283 81.5387 164.728 72.9146C171.471 69.144 176.694 64.2596 180.744 58.9767C180.723 58.4658 180.683 57.955 180.632 57.4439C176.571 62.9721 171.236 68.1118 164.228 72.0256C148.538 80.7929 132.471 99.4209 131.951 121.298C131.737 130.311 134.195 142.082 144.121 154.63V154.63Z" fill="white"/>
<path d="M167.526 154.568L168.945 154.558C163.772 148.437 160.416 141.652 160.631 135C160.916 126.171 167.272 118.753 179.513 112.959C184.756 110.476 189.653 107.451 194.193 104.1C193.693 104.038 193.193 103.987 192.703 103.916C188.47 106.971 183.92 109.73 179.074 112.029C166.455 118.007 159.906 125.722 159.61 134.959C159.386 141.867 162.64 148.601 167.526 154.568V154.568Z" fill="white"/>
</g>
<path d="M101.386 104.952C101.386 104.952 124.684 117.709 135.2 128.14C135.2 128.14 148.098 132.44 149.788 115.351C149.788 115.351 156.135 114.657 158.011 123.506C158.011 123.506 171.146 122.42 176.583 113.866C176.583 113.866 182.219 122.459 174.092 128.423C174.092 128.423 182.846 128.462 186.17 123.314C186.17 123.314 190.326 134.445 185.216 137.986C180.105 141.528 176.711 139.432 176.711 139.432C176.711 139.432 184.005 146.598 188.2 146.65C188.2 146.65 181.258 157.37 165.011 149.06C165.011 149.06 157.172 145.422 145.587 151.213C145.587 151.213 155.059 164.497 138.229 168.501C138.229 168.501 130.743 149.221 112.715 141.605C112.715 141.605 116.602 128.256 107.592 122.15C107.553 122.144 100.695 112.131 101.386 104.952Z" fill="#607BB0"/>
<path d="M50.032 111.539C50.6276 111.135 56.2568 103.416 58.0115 113.744C58.3061 115.479 56.9804 116.88 57.211 118.988C59.3307 138.192 60.6628 170.982 61.6042 170.616C72.1645 173.746 116.897 157.338 116.282 136.431C115.904 123.654 109.692 115.441 101.636 110.755C102.712 110.183 103.737 109.592 104.704 108.962C105.498 109.631 106.296 110.316 107.099 111.019C111.832 113.506 115.903 117.093 118.972 121.482C118.773 121.341 119.715 122.581 119.555 122.562C123.64 129.458 124.793 141.965 124.793 141.965C124.917 142.325 125.082 142.671 125.286 142.993C125.523 152.093 120.803 170.834 120.803 170.834L37.1726 170.513C37.1726 170.513 32.4592 154.548 32.6898 152.087C32.8627 150.39 32.8947 134.233 36.2953 126.482C39.0126 120.056 43.8676 114.774 50.032 111.539Z" fill="#365AA1"/>
<path d="M58.242 120.486L50.6531 122.806C51.9019 119.734 55.0847 114.727 57.3518 111.771C58.1395 112.021 58.2548 112.638 59.0617 112.863C58.6966 115.016 57.9538 118.628 58.242 120.486Z" fill="#F28F4C"/>
<path d="M53.1764 117.735L102.142 138.719L103.935 125.171C103.935 125.171 105.709 126.598 105.709 131.598C110.832 123.159 106.004 115.794 101.015 111.077L101.655 110.749C109.712 115.434 116.301 123.641 116.301 136.424C116.301 154.889 85.248 173.328 70.0512 170.487C66.9452 169.915 63.1412 171.059 61.6234 170.59C55.8982 162.158 50.8197 143.661 49.6734 138.931C46.3817 125.467 53.1764 117.735 53.1764 117.735Z" fill="#F28F4C"/>
<path d="M105.709 131.598C105.709 126.611 103.935 125.171 103.935 125.171L102.142 138.719L99.6575 134.091L95.4884 141.881L97.32 117.831L97.4865 117.754L97.3328 117.645V117.6H97.2815L92.645 114.342C95.5293 113.518 98.3297 112.423 101.009 111.07C105.985 115.8 110.833 123.166 105.709 131.598Z" fill="white"/>
<path d="M97.3134 117.831L97.3326 117.645L97.4862 117.754L97.3134 117.831Z" fill="#FDECDD"/>
<path d="M63.9929 132.414L65.056 125.987C65.4146 129.901 77.8641 142.369 77.8641 142.369L77.5055 135.248C77.5055 139.162 90.2816 152.338 90.2816 152.338L99.8877 134.535L102.372 139.162L104.146 125.666C104.146 125.666 105.92 127.086 105.92 132.093C108.309 124.348 108.86 122.067 106.125 117.677C101.04 120.248 91.3255 121.302 83.6278 122.105C75.1168 123.005 67.0156 122.934 58.3445 117.767C56.5641 127.922 63.9929 132.414 63.9929 132.414Z" fill="white"/>
<path d="M105.677 151.322C111.255 151.322 115.776 146.784 115.776 141.187C115.776 135.589 111.255 131.052 105.677 131.052C100.099 131.052 95.5777 135.589 95.5777 141.187C95.5777 146.784 100.099 151.322 105.677 151.322Z" fill="#C1C1BF"/>
<path d="M106.74 152.087C112.272 152.087 116.756 147.587 116.756 142.035C116.756 136.484 112.272 131.984 106.74 131.984C101.208 131.984 96.7239 136.484 96.7239 142.035C96.7239 147.587 101.208 152.087 106.74 152.087Z" fill="white"/>
<path d="M101.809 140.332V142.035V143.745L104.255 146.309H106.394V145.184H104.46L102.622 143.346V142.035V140.731L104.46 138.892H106.394V137.768H104.255L101.809 140.332Z" fill="#C71617"/>
<path d="M103.8 136.727L100.701 139.959V142.035V144.118L103.8 147.35H106.394V146.727H104.005L101.245 143.957V142.035V140.12L104.005 137.35H106.394V136.727H103.8Z" fill="#C71617"/>
<path d="M111.671 143.745V142.035V140.332L109.225 137.768H107.086V138.892H109.02L110.858 140.731V142.035V143.346L109.02 145.184H107.086V146.309H109.225L111.671 143.745Z" fill="#28347C"/>
<path d="M109.68 147.35L112.779 144.118V142.035V139.959L109.68 136.727H107.086V137.35H109.475L112.235 140.12V142.035V143.957L109.475 146.727H107.086V147.35H109.68Z" fill="#28347C"/>
<path d="M109.187 137.806V139.362C108.86 139.414 108.566 139.591 108.367 139.856C108.168 140.121 108.078 140.452 108.117 140.782C108.117 142.125 108.668 146.663 104.377 146.123V144.799C104.377 144.799 106.702 145.397 106.497 141.103C106.305 137.17 109.187 137.806 109.187 137.806Z" fill="white"/>
<path d="M105.043 146.303C104.814 146.303 104.585 146.288 104.358 146.258H104.243V144.638L104.409 144.683C104.606 144.721 104.808 144.715 105.002 144.665C105.196 144.615 105.376 144.522 105.53 144.394C105.84 144.122 106.063 143.764 106.17 143.366C106.365 142.635 106.435 141.877 106.375 141.123C106.305 139.722 106.612 138.725 107.285 138.153C107.554 137.945 107.865 137.795 108.196 137.714C108.526 137.633 108.871 137.623 109.206 137.684H109.315V139.477H109.187C109.148 139.477 108.239 139.574 108.239 140.763C108.239 140.885 108.239 141.02 108.239 141.187C108.277 142.331 108.341 144.458 107.118 145.57C106.544 146.069 105.802 146.331 105.043 146.303ZM104.512 146.007C104.941 146.083 105.383 146.065 105.805 145.954C106.227 145.843 106.62 145.642 106.958 145.364C108.085 144.33 108.027 142.286 107.989 141.187C107.989 141.02 107.989 140.878 107.989 140.756C107.969 140.503 108.013 140.249 108.117 140.017C108.221 139.786 108.382 139.585 108.585 139.432C108.728 139.335 108.889 139.265 109.058 139.227V137.896C108.774 137.855 108.485 137.872 108.208 137.946C107.93 138.02 107.671 138.149 107.445 138.327C106.843 138.841 106.574 139.76 106.638 141.071C106.721 142.813 106.407 143.989 105.703 144.567C105.371 144.84 104.945 144.972 104.518 144.934L104.512 146.007Z" fill="#C71617"/>
<path opacity="0.5" d="M120.073 82.8432C120.073 82.8432 121.649 86.1724 121.533 87.3421C121.418 88.5118 117.889 88.5696 118.056 86.9822C118.152 85.8446 120.073 82.8432 120.073 82.8432Z" fill="white"/>
<path opacity="0.5" d="M117.602 78.1644C117.602 78.1644 118.614 79.7075 118.633 80.3054C118.652 80.9034 116.91 81.1605 116.884 80.3633C117.025 79.6017 117.267 78.8623 117.602 78.1644V78.1644Z" fill="white"/>
<path d="M53.9257 24.8722C53.9257 25.5149 53.8745 26.4275 53.8361 27.5394L45.5108 18.2075C43.3039 21.17 41.7001 24.5397 40.791 28.1243L27.0158 20.5019L88.7703 0L127.835 20.9068L125.139 22.5328C125.005 21.9865 124.953 21.6716 124.947 21.6523C124.895 21.3114 124.711 21.0051 124.434 20.8009C124.157 20.5966 123.811 20.511 123.471 20.563C123.131 20.6149 122.826 20.8003 122.622 21.0781C122.419 21.3559 122.334 21.7035 122.385 22.0444C122.494 22.6758 122.639 23.3003 122.821 23.9146L106.939 33.4972C107.035 30.5536 107.124 27.9379 107.163 26.6204C107.656 11.8513 54.3996 10.1288 53.9257 24.8722Z" fill="#444343"/>
<path d="M92.6255 37.694L99.1576 36.3443C99.1576 36.3443 94.4827 31.0292 85.1199 34.1656C88.7062 30.8814 86.7786 26.1062 86.7786 26.1062C84.7869 29.2297 68.8471 33.9085 62.2637 36.9548L53.836 27.5394C53.8744 26.4275 53.9064 25.5021 53.9256 24.8722C54.3995 10.0903 107.656 11.8513 107.176 26.6075C107.137 27.925 107.047 30.5408 106.951 33.4843C106.855 36.4278 106.759 39.5449 106.676 42.1478C103.006 40.2712 94.8797 38.2595 92.6255 37.694Z" fill="#353535"/>
<path d="M123.474 20.5598C123.641 20.5333 123.812 20.5403 123.976 20.5803C124.14 20.6204 124.295 20.6927 124.431 20.793C124.568 20.8934 124.683 21.0199 124.77 21.1652C124.858 21.3105 124.915 21.4717 124.94 21.6395V21.6395C124.94 21.6395 124.998 21.9737 125.133 22.52C126.02 25.8851 127.542 29.0484 129.615 31.8391C131.88 34.9356 134.728 37.556 137.998 39.5514C141.69 41.7639 145.735 43.3186 149.955 44.1466C149.671 44.4961 149.485 44.9155 149.417 45.3613C149.35 45.8219 149.414 46.292 149.603 46.7174C144.993 45.8291 140.577 44.1298 136.557 41.698C131.58 38.6544 127.541 34.2849 124.889 29.0755C124.052 27.4301 123.372 25.7085 122.859 23.9339C122.677 23.3197 122.532 22.6952 122.424 22.0637C122.392 21.8956 122.395 21.7229 122.431 21.5557C122.467 21.3886 122.536 21.2303 122.634 21.0903C122.732 20.9502 122.856 20.8311 123.001 20.7401C123.145 20.649 123.306 20.5877 123.474 20.5598V20.5598Z" fill="#353535"/>
<path d="M154.393 46.0683C154.47 45.5232 154.366 44.9677 154.098 44.4873C157.87 44.7572 164.178 47.6365 164.985 48.2599C165.69 48.7805 165.625 49.8859 165.184 51.152L159.811 48.6905L164.735 52.2318C164.47 52.7363 164.177 53.2255 163.858 53.6971L155.078 48.3113L162.161 55.7601C160.81 57.0969 159.362 57.8682 158.466 57.2062C157.569 56.5442 153.342 51.7754 151.812 48.2599C152.436 48.2799 153.045 48.0669 153.522 47.662C153.999 47.2572 154.309 46.6894 154.393 46.0683V46.0683Z" fill="#353535"/>
<path d="M149.929 44.1274C150.186 43.8004 150.52 43.5425 150.901 43.377C151.281 43.2115 151.697 43.1436 152.11 43.1792C152.524 43.2149 152.922 43.3532 153.269 43.5815C153.616 43.8098 153.901 44.1211 154.098 44.4873C154.316 44.8774 154.427 45.3187 154.418 45.7659C154.409 46.213 154.282 46.6497 154.049 47.0309C153.816 47.4121 153.486 47.7241 153.093 47.9345C152.699 48.1449 152.257 48.2461 151.812 48.2278C151.718 48.2341 151.624 48.2341 151.53 48.2278C151.108 48.1602 150.709 47.9854 150.373 47.72C150.037 47.4545 149.774 47.1072 149.609 46.7111C149.421 46.2857 149.357 45.8155 149.423 45.355C149.48 44.9078 149.654 44.484 149.929 44.1274V44.1274Z" fill="#F9B233"/>
<path d="M113.9 60.0533C112.805 60.0533 97.8895 62.5148 92.9135 66.6409C93.1761 66.3838 90.9923 67.8877 91.2997 67.6435C90.6593 68.4469 90.0957 69.2052 89.5898 69.8544C87.4124 72.6822 84.236 71.0176 83.3842 69.7644C82.8719 69.006 82.3083 68.1255 81.7064 67.1551C82.0778 67.5728 82.4492 67.997 82.8079 68.4404C80.6409 67.643 78.8514 66.0581 77.7935 63.9994C75.123 59.1857 46.6825 65.0213 38.1394 59.5841C35.8788 58.1445 38.0626 51.0106 39.0808 44.6544L40.3616 35.978C40.0497 33.325 40.2101 30.6374 40.8355 28.0407C41.733 24.4618 43.3261 21.0961 45.5233 18.1368L53.8807 27.4816L62.3084 36.897C68.8726 33.8507 84.8315 29.1847 86.8232 26.0484C86.8232 26.0484 88.7444 30.8236 85.1646 34.1078C94.5209 30.9714 99.2023 36.2865 99.2023 36.2865L92.6701 37.6361C94.9244 38.2017 103.045 40.2069 106.714 42.09C106.817 42.1384 106.918 42.192 107.015 42.2507L118.293 26.8903C120.228 29.8829 121.434 33.291 121.812 36.8384C122.19 40.3859 121.731 43.9728 120.47 47.3087C120.041 48.9668 119.638 53.0479 118.722 55.5287C117.063 60.0404 115.2 60.0597 113.9 60.0533Z" fill="#607BB0"/>
<path d="M103.218 113.853C104.289 113.365 105.308 112.844 106.273 112.291C123.41 102.606 126.125 83.9551 126.125 83.9551L124.204 79.8932L121.482 78.8199L120.695 71.6282L121.751 73.1128C121.156 69.3274 119.83 61.6986 117.877 56.1072C116.282 56.6021 114.495 57.0648 112.6 57.534C120.842 67.5278 119.26 78.158 119.26 78.158C119.26 78.158 115.885 97.4388 104.851 98.9362C102.398 99.2704 98.1971 96.5776 94.2906 93.4862C94.2906 95.0994 90.4481 97.6444 83.1219 95.9027C77.9986 94.6816 77.3582 97.9336 76.1286 92.8499C72.0533 95.2725 67.4647 96.693 62.7377 96.9953C59.2633 97.1835 55.8027 96.4263 52.7217 94.8037C42.3215 89.5336 37.448 77.2646 40.9062 66.0946C42.3599 61.403 44.358 56.2871 46.9517 52.3539C47.2591 51.8911 47.5921 51.4412 47.8995 51.017C45.9782 50.625 44.1082 50.2008 42.4176 49.6803C40.0134 53.2044 38.1021 57.0427 36.7372 61.0881L38.2933 59.2435L37.1406 70.4135L30.3971 72.3802L26.6379 77.0847C26.6379 77.0847 27.3744 87.9398 36.3721 98.1714C38.6058 100.685 41.0717 102.982 43.7368 105.029C47.0107 107.551 50.5319 109.733 54.2459 111.539C54.9824 111.899 55.7445 112.253 56.5129 112.587C60.4438 114.318 64.5401 115.642 68.7383 116.54C68.7383 116.54 78.6006 118.211 81.9243 118.468C84.8264 118.66 87.7391 118.318 90.5186 117.459C93.4917 117.059 96.4207 116.379 99.2665 115.428L99.907 115.196C101.068 114.776 102.172 114.329 103.218 113.853Z" fill="#607BB0"/>
<path d="M92.8562 76.7633C92.7729 77.7595 92.2862 88.049 92.3247 88.9745C90.999 87.8241 86.3689 87.1428 85.5171 87.1557C82.9939 87.0914 79.318 86.9693 76.2056 90.1699C77.6273 87.5992 78.383 84.2057 78.652 80.8573C78.6904 80.3496 79.0298 77.9973 79.0362 77.496L78.7608 75.4651C79.1579 70.5549 76.0583 66.0304 73.8873 62.6112C75.6549 63.8966 77.4288 59.7191 79.0106 61.4544C79.6126 62.4184 83.6151 68.7939 84.1338 69.5523C84.9792 70.8056 84.8575 71.7889 87.0349 68.9611C87.5408 68.3184 90.2369 66.3582 90.8773 65.5484C92.2734 64.3594 99.7854 61.3965 101.374 61.4544C97.3903 66.3581 92.8626 76.3842 92.8562 76.7633Z" fill="#607BB0"/>
<path d="M96.4552 89.3344C97.9518 90.9917 100.003 92.0393 102.219 92.278C108.52 92.8307 112.26 87.9012 113.061 78.9421C113.112 78.3572 113.292 75.8186 113.298 75.2466C113.938 67.7142 99.2474 65.754 94.4891 63.8324C96.0389 63.4275 111.089 57.9003 112.555 57.534C120.797 67.5278 119.215 78.158 119.215 78.158C119.215 78.158 115.84 97.4388 104.806 98.9363C102.353 99.2705 98.1523 96.5776 94.2458 93.4862C94.2428 92.6647 94.4431 91.8553 94.8287 91.1307C95.2143 90.406 95.7732 89.7888 96.4552 89.3344V89.3344Z" fill="#607BB0"/>
<path d="M67.3422 56.827C63.8392 59.2821 60.1953 60.3104 54.8607 70.6127C51.3064 77.4574 51.9212 90.9861 65.357 91.9437C69.1226 92.2136 72.696 90.4655 75.4178 87.4127C75.4091 89.241 75.6395 91.0625 76.103 92.8306C72.0277 95.2532 67.4391 96.6737 62.7121 96.976C59.2377 97.1642 55.7771 96.407 52.6961 94.7844C42.2959 89.5143 37.4224 77.2453 40.8806 66.0753C42.3343 61.3837 44.3324 56.2678 46.926 52.3346C47.2334 51.8718 47.5664 51.4219 47.8738 50.9977C53.1444 52.071 61.4121 55.0531 67.3422 56.827Z" fill="#607BB0"/>
<path d="M77.0187 64.2308C74.2265 59.8733 71.7802 58.8579 67.2781 58.6908C61.8475 58.4851 54.8222 64.6036 52.5487 71.3197C50.096 78.6336 51.3576 94.6752 64.7933 95.6328C68.5653 95.9027 72.1324 94.1546 74.8605 91.0954C74.899 90.2277 75.9749 90.5812 75.9749 90.5812C75.9749 90.5812 75.7251 89.2958 77.1788 87.7984C78.6911 85.0233 79.593 81.9551 79.8237 78.8007C79.8621 78.2929 79.8878 77.7916 79.8942 77.2903V77.1361C80.3541 72.6353 79.345 68.1063 77.0187 64.2308V64.2308ZM78.1074 78.7814C77.467 87.0143 71.8442 93.2805 65.6003 92.7792C59.3563 92.2779 54.835 85.1826 55.4946 76.969C56.1542 68.7554 61.2199 65.1241 67.4638 65.6383C73.7078 66.1525 78.767 70.5421 78.1074 78.7814V78.7814Z" fill="#254972"/>
<path d="M67.6176 65.619C61.3736 65.0727 55.8661 70.7156 55.3089 78.2158C54.7518 85.716 59.3627 92.2329 65.6003 92.7792C71.8378 93.3255 77.3517 87.6762 77.9025 80.1824C78.4532 72.6886 73.8551 66.1589 67.6176 65.619ZM75.1616 79.996C74.6941 85.671 70.858 89.9385 66.5993 89.54C62.3406 89.1416 59.2602 84.2185 59.7341 78.5436C59.8405 77.1896 60.1559 75.8605 60.6691 74.6039C60.379 74.086 60.2497 73.4929 60.2977 72.9007C60.3559 72.4612 60.5003 72.0376 60.7223 71.6543C60.9444 71.271 61.2398 70.9355 61.5916 70.6673C61.9434 70.3991 62.3446 70.2034 62.7721 70.0914C63.1996 69.9795 63.645 69.9535 64.0825 70.015L64.2938 70.0472C65.4724 69.2555 66.8827 68.8864 68.2964 68.9996C72.5551 69.4045 75.629 74.3275 75.1616 79.996V79.996Z" fill="white"/>
<path d="M76.2694 81.2236C75.5202 87.0078 71.4792 91.2432 67.2397 90.6583C63.0002 90.0735 60.1952 84.9127 60.9125 79.0899C61.0841 77.7057 61.4642 76.3556 62.0396 75.0859C62.29 75.5989 62.6578 76.0452 63.1131 76.3881C63.5683 76.731 64.098 76.9609 64.6588 77.059C64.3906 77.7495 64.2078 78.4704 64.1145 79.2056C63.6278 82.9653 65.4722 86.3266 68.2195 86.6994C68.7028 86.7654 69.1943 86.737 69.6668 86.6158C69.7826 86.9546 69.9902 87.2543 70.2662 87.4813C70.5422 87.7083 70.8757 87.8537 71.2294 87.9012C71.4609 87.9416 71.698 87.9355 71.9271 87.8832C72.1562 87.8309 72.3726 87.7335 72.5638 87.5966C72.7551 87.4596 72.9173 87.286 73.0411 87.0856C73.165 86.8852 73.2479 86.6622 73.2851 86.4294C73.3239 86.0877 73.2605 85.7421 73.1032 85.4366C72.9458 85.1311 72.7015 84.8794 72.4014 84.7134C73.3269 83.5086 73.907 82.073 74.0792 80.5616C74.5659 76.7954 72.728 73.4406 69.9742 73.0614C69.5471 73.0072 69.1139 73.0268 68.6934 73.1193C68.5167 72.468 68.1593 71.8805 67.6626 71.4254C67.166 70.9702 66.5507 70.6661 65.8884 70.5485C67.0963 69.7891 68.5274 69.4692 69.9422 69.6423C74.1753 70.2528 77.0123 75.4265 76.2694 81.2236Z" fill="#F9B233"/>
<path d="M68.7577 74.3146C68.8055 73.928 68.7816 73.5358 68.6873 73.1578C69.1078 73.0653 69.541 73.0458 69.9681 73.1C72.7219 73.4792 74.5598 76.834 74.0731 80.6002C73.9009 82.1116 73.3207 83.5471 72.3952 84.752C72.1715 84.617 71.9234 84.5274 71.6652 84.4885C71.433 84.449 71.1953 84.4559 70.9658 84.5089C70.7363 84.5619 70.5195 84.6598 70.3278 84.7972C70.1362 84.9346 69.9735 85.1086 69.8491 85.3093C69.7247 85.51 69.6411 85.7334 69.6031 85.9667C69.5771 86.1932 69.5967 86.4227 69.6607 86.6415C69.1881 86.7627 68.6967 86.791 68.2134 86.725C65.466 86.3523 63.6216 82.991 64.1083 79.2312C64.2017 78.4961 64.3845 77.7752 64.6527 77.0847L64.8256 77.1168C65.2674 77.1941 65.72 77.1828 66.1574 77.0835C66.5947 76.9842 67.0082 76.799 67.3738 76.5384C67.7394 76.2779 68.05 75.9472 68.2875 75.5655C68.525 75.1838 68.6849 74.7587 68.7577 74.3146V74.3146Z" fill="#543419"/>
<path d="M68.6873 73.1579C68.7816 73.5358 68.8055 73.928 68.7578 74.3147C68.6849 74.7581 68.5252 75.1826 68.2881 75.5639C68.051 75.9451 67.7411 76.2754 67.3762 76.5359C67.0113 76.7964 66.5986 76.9818 66.1619 77.0815C65.7253 77.1812 65.2733 77.1932 64.8321 77.1169L64.6592 77.0847C64.0984 76.9867 63.5687 76.7568 63.1134 76.4139C62.6582 76.0709 62.2903 75.6247 62.0399 75.1116C61.777 74.5647 61.6769 73.9533 61.7517 73.3507C61.8247 72.9071 61.9842 72.4823 62.2213 72.1008C62.4583 71.7193 62.7681 71.3885 63.1329 71.1276C63.4977 70.8666 63.9103 70.6805 64.3469 70.58C64.7836 70.4796 65.2358 70.4667 65.6774 70.5421L65.8823 70.5807C66.5454 70.6988 67.1613 71.0039 67.658 71.4602C68.1547 71.9166 68.5117 72.5054 68.6873 73.1579Z" fill="white"/>
<path d="M71.6715 84.4885C71.9297 84.5275 72.1777 84.617 72.4015 84.752C72.7017 84.918 72.946 85.1697 73.1033 85.4752C73.2607 85.7807 73.324 86.1263 73.2853 86.468C73.2481 86.7008 73.1651 86.9239 73.0413 87.1242C72.9175 87.3246 72.7552 87.4983 72.564 87.6352C72.3727 87.7721 72.1563 87.8695 71.9272 87.9218C71.6982 87.9741 71.461 87.9802 71.2296 87.9398C70.8759 87.8923 70.5423 87.7469 70.2663 87.5199C69.9903 87.2929 69.7828 86.9932 69.667 86.6544C69.6029 86.4356 69.5834 86.2061 69.6094 85.9796C69.6459 85.7452 69.7284 85.5204 69.8521 85.3182C69.9759 85.1161 70.1383 84.9406 70.3301 84.8019C70.5219 84.6632 70.7393 84.5641 70.9695 84.5103C71.1997 84.4565 71.4384 84.4491 71.6715 84.4885Z" fill="white"/>
<path d="M114.656 79.0256C114.656 79.5912 114.617 80.1696 114.566 80.748C113.766 89.7071 108.008 96.5197 101.7 95.967C99.4844 95.7283 97.4332 94.6807 95.9366 93.0235C96.4214 92.6747 96.9487 92.3896 97.5056 92.1751C98.5713 93.0662 99.8783 93.6168 101.258 93.7561C106.382 94.2124 111.031 88.531 111.691 81.0758C112.35 73.6205 108.617 69.5073 103.513 69.0703C98.4086 68.6332 93.6952 71.8724 93.042 79.3534C92.8873 80.7747 92.853 82.2066 92.9395 83.6337C92.8307 83.5244 93.4198 86.1402 93.2341 86.6544C92.9395 87.477 92.139 85.9538 91.9533 85.7867C91.7676 85.6196 91.6715 82.8303 91.6715 81.757C91.9931 77.4758 93.0913 73.2896 94.912 69.4045C96.4489 66.4159 101.124 62.3348 107.125 64.9956C111.806 67.0586 115.309 71.4868 114.656 79.0256Z" fill="#254972"/>
<path d="M103.423 68.2926C108.546 68.7746 112.209 74.6039 111.658 81.3072C111.108 88.0104 106.625 95.1186 101.501 94.6366C100.125 94.5081 98.7477 91.9116 97.6591 91.0889C97.6591 91.0889 96.9674 92.5543 96.9802 92.5478C97.4285 92.1879 98.7221 90.0478 98.6261 89.0516C99.1485 89.2773 99.7047 89.4141 100.272 89.4565C104.038 89.7393 107.316 85.9538 107.617 80.9922C107.918 76.0307 105.056 71.7889 101.309 71.5061C100.098 71.4245 98.8944 71.7452 97.8832 72.4187C97.1581 72.435 96.4632 72.713 95.9257 73.2016C95.3882 73.6903 95.0441 74.3569 94.9565 75.0795C94.936 75.331 94.9511 75.5842 95.0014 75.8314C94.394 77.1314 94.0418 78.5367 93.9639 79.9704C93.8818 81.3452 94.0489 82.7236 94.457 84.0386C94.1176 83.7108 93.7142 83.3445 93.2851 82.9589C93.1231 81.8267 93.0865 80.68 93.1762 79.5397C93.727 72.8557 98.2995 67.8106 103.423 68.2926Z" fill="white"/>
<path d="M37.115 70.4135L30.3715 72.3865L26.1256 73.6269L36.7051 61.0944L38.2613 59.2435L37.115 70.4135Z" fill="#607BB0"/>
<path d="M120.669 71.6282L121.719 73.1128L127.451 81.1915L124.178 79.8932L121.45 78.8199L120.669 71.6282Z" fill="#607BB0"/>
<path d="M50.9095 39.2814C65.3891 43.5618 72.139 51.9039 76.1415 57.5853C78.5111 60.9595 79.7342 62.9518 79.7342 62.9518C79.3308 62.5469 78.9209 62.1678 78.5046 61.795C76.8324 60.2886 75.003 58.9677 73.0484 57.8553C69.0071 55.6324 64.6204 54.1113 60.0737 53.3564C53.9834 52.2189 47.906 52.071 42.533 51.5697C40.6559 51.4168 38.7877 51.1679 36.9358 50.8242C33.1958 50.1044 30.1091 48.864 28.0662 46.4539C32.3441 45.7405 35.6294 46.2289 37.4866 45.6505C28.2135 40.7404 21.8926 32.2761 21.8926 32.2761L34.0604 35.226L50.9095 39.2814Z" fill="#1B2B4A"/>
<path d="M112.696 60.7667C108.775 60.8471 104.873 61.3229 101.047 62.187C99.2044 62.6292 97.4233 63.2984 95.7444 64.1794C95.4178 64.3593 95.104 64.5457 94.7838 64.745C98.6711 60.2461 102.142 56.3 107.214 54.1855C114.572 51.1263 122.712 50.3872 128.476 50.3294C131.042 50.2874 133.608 50.4012 136.161 50.67C133.119 53.2214 129.673 55.2439 125.965 56.6535C127.156 56.917 128.527 57.1933 130.166 57.4697C129.135 59.2435 126.42 59.9569 122.834 60.2975C121.181 60.4518 119.331 60.5353 117.384 60.5996C115.866 60.651 114.31 60.696 112.696 60.7667Z" fill="#1B2B4A"/>
<path d="M109.468 84.6234C109.02 89.0516 105.85 92.3357 102.392 91.9051C98.9335 91.4745 96.4807 87.5862 96.929 83.1581C97.0338 82.0989 97.3084 81.0637 97.7424 80.0924C97.9695 80.4893 98.2835 80.8291 98.6607 81.0863C99.0379 81.3435 99.4684 81.5113 99.9197 81.5771C99.7229 82.1048 99.5937 82.6555 99.5355 83.2159C99.2473 86.0888 100.816 88.6338 103.077 88.8973C103.471 88.9396 103.87 88.9135 104.255 88.8202C104.359 89.0851 104.534 89.3162 104.76 89.4885C104.985 89.6608 105.254 89.7675 105.536 89.7971C105.718 89.8304 105.905 89.8271 106.086 89.7876C106.267 89.748 106.438 89.6729 106.59 89.5665C106.742 89.4601 106.871 89.3247 106.971 89.1679C107.07 89.0111 107.137 88.8362 107.169 88.6531C107.183 88.3873 107.117 88.1235 106.982 87.8948C106.846 87.6661 106.646 87.4827 106.407 87.3677C107.122 86.4391 107.556 85.3235 107.656 84.1542C107.944 81.275 106.375 78.7363 104.114 78.4728C103.766 78.4317 103.413 78.4491 103.071 78.5243C102.893 78.0172 102.58 77.5689 102.165 77.2288C101.751 76.8887 101.251 76.6698 100.72 76.5962C101.702 75.9992 102.851 75.7418 103.993 75.8635C107.477 76.2813 109.916 80.1824 109.468 84.6234Z" fill="#F9B233"/>
<path d="M103.179 79.4241C103.208 79.1275 103.177 78.8282 103.09 78.5436C103.433 78.4684 103.785 78.451 104.134 78.4921C106.382 78.7556 107.976 81.2943 107.675 84.1736C107.575 85.3428 107.141 86.4584 106.426 87.387C106.239 87.2856 106.035 87.2202 105.824 87.1942C105.642 87.16 105.455 87.1626 105.274 87.2018C105.092 87.2411 104.921 87.3161 104.769 87.4226C104.617 87.5291 104.487 87.6649 104.388 87.8221C104.289 87.9793 104.222 88.1548 104.191 88.3382C104.174 88.5122 104.196 88.6879 104.255 88.8524C103.87 88.9457 103.471 88.9718 103.077 88.9295C100.829 88.666 99.2346 86.1209 99.5355 83.2481C99.5938 82.6876 99.7229 82.1369 99.9198 81.6092H100.061C100.409 81.6739 100.766 81.6685 101.112 81.5933C101.458 81.5182 101.785 81.3748 102.076 81.1714C102.366 80.9681 102.613 80.7089 102.802 80.409C102.992 80.109 103.12 79.7742 103.179 79.4241V79.4241Z" fill="#543419"/>
<path d="M103.09 78.5436C103.177 78.8283 103.208 79.1275 103.18 79.4241C103.119 79.7731 102.989 80.1065 102.799 80.405C102.609 80.7035 102.362 80.9612 102.072 81.1632C101.782 81.3653 101.455 81.5076 101.11 81.5819C100.764 81.6563 100.408 81.6612 100.061 81.5964H99.9199C99.4686 81.5306 99.0381 81.3628 98.6609 81.1056C98.2837 80.8484 97.9697 80.5086 97.7425 80.1118C97.5126 79.704 97.4142 79.2347 97.4607 78.7685C97.5201 78.4194 97.6481 78.0857 97.8374 77.7867C98.0267 77.4878 98.2734 77.2297 98.5631 77.0275C98.8528 76.8253 99.1798 76.683 99.5249 76.6089C99.87 76.5349 100.226 76.5306 100.573 76.5962H100.74C101.272 76.6715 101.774 76.8932 102.189 77.2369C102.604 77.5806 102.915 78.0329 103.09 78.5436V78.5436Z" fill="white"/>
<path d="M105.824 87.1621C106.035 87.1881 106.239 87.2535 106.426 87.3549C106.665 87.4699 106.865 87.6532 107.001 87.8819C107.137 88.1107 107.202 88.3745 107.188 88.6403C107.157 88.8234 107.089 88.9983 106.99 89.1551C106.89 89.3119 106.761 89.4473 106.609 89.5537C106.457 89.66 106.286 89.7352 106.105 89.7748C105.924 89.8143 105.737 89.8176 105.555 89.7843C105.273 89.7547 105.005 89.6479 104.779 89.4757C104.553 89.3034 104.378 89.0723 104.274 88.8074C104.215 88.643 104.193 88.4673 104.21 88.2932C104.276 87.929 104.483 87.6056 104.785 87.3936C105.087 87.1817 105.461 87.0984 105.824 87.1621Z" fill="white"/>
<path d="M250.953 110.466L238.786 170.513H132.971C132.411 170.513 131.873 170.289 131.477 169.892C131.08 169.494 130.858 168.955 130.858 168.392V168.392C130.858 168.114 130.912 167.838 131.019 167.581C131.125 167.324 131.281 167.091 131.477 166.895C131.673 166.698 131.906 166.543 132.163 166.437C132.419 166.331 132.694 166.277 132.971 166.278H154.265L165.542 110.428C165.648 109.907 165.928 109.439 166.336 109.101C166.744 108.763 167.255 108.576 167.784 108.57L248.635 107.683C248.982 107.675 249.327 107.746 249.643 107.89C249.959 108.034 250.239 108.247 250.462 108.515C250.684 108.782 250.844 109.096 250.929 109.434C251.014 109.772 251.023 110.125 250.953 110.466V110.466Z" fill="#E9E8E8"/>
<path d="M250.953 110.466C250.953 110.466 250.953 110.408 250.953 110.286C250.978 110.105 250.978 109.921 250.953 109.74C250.914 109.38 250.793 109.035 250.599 108.731C250.404 108.426 250.142 108.171 249.833 107.985C249.617 107.855 249.381 107.761 249.135 107.709C248.86 107.657 248.581 107.638 248.302 107.651H246.381L241.623 107.69L211.05 107.979L189.737 108.197L177.8 108.32L171.536 108.384L168.334 108.416C168.065 108.416 167.809 108.416 167.515 108.416C167.232 108.449 166.957 108.53 166.701 108.654C166.183 108.912 165.77 109.344 165.536 109.875C165.435 110.139 165.362 110.412 165.318 110.691L165.152 111.501L164.825 113.127C164.607 114.211 164.394 115.304 164.185 116.405C163.758 118.603 163.307 120.829 162.833 123.082C161.915 127.59 160.98 132.198 160.028 136.907C158.107 146.322 156.135 156.117 154.092 166.207L154.233 166.091H133.291C133.015 166.078 132.738 166.093 132.465 166.136C131.903 166.259 131.408 166.592 131.082 167.068C130.9 167.33 130.776 167.627 130.717 167.94C130.658 168.254 130.666 168.576 130.74 168.886C130.813 169.196 130.952 169.487 131.145 169.74C131.339 169.992 131.584 170.201 131.863 170.352C132.17 170.516 132.509 170.608 132.856 170.622H189.058H238.734H238.824V170.532C242.545 152.074 245.58 137.061 247.681 126.656C248.718 121.456 249.532 117.407 250.082 114.657C250.351 113.288 250.563 112.24 250.723 111.527C250.883 110.813 250.921 110.46 250.921 110.46C250.921 110.46 250.838 110.82 250.691 111.52C250.544 112.221 250.319 113.275 250.05 114.644C249.487 117.394 248.654 121.437 247.585 126.63C245.465 137.029 242.398 152.036 238.619 170.487L238.734 170.397H189.058H132.881C132.58 170.386 132.284 170.307 132.017 170.166C131.662 169.975 131.373 169.678 131.191 169.317C131.009 168.956 130.943 168.547 131 168.147C131.057 167.746 131.236 167.373 131.512 167.078C131.788 166.782 132.147 166.579 132.542 166.496C132.794 166.458 133.049 166.443 133.304 166.451H154.367V166.336L160.284 137.035C161.241 132.322 162.174 127.712 163.083 123.204C163.54 120.955 163.988 118.729 164.428 116.527C164.652 115.428 164.87 114.335 165.068 113.249L165.395 111.623L165.555 110.813C165.598 110.552 165.667 110.296 165.76 110.048C165.967 109.573 166.335 109.187 166.797 108.956C167.028 108.841 167.278 108.769 167.534 108.744C167.777 108.744 168.059 108.744 168.328 108.744L171.53 108.705L177.793 108.635L189.737 108.493L211.05 108.242L241.616 107.863L246.381 107.799H248.302C248.576 107.781 248.851 107.796 249.122 107.844C249.591 107.941 250.017 108.184 250.34 108.538C250.663 108.892 250.867 109.34 250.921 109.817C250.954 110.032 250.964 110.249 250.953 110.466V110.466Z" fill="#233237"/>
<path d="M205.696 141.457C207.627 141.457 209.193 139.886 209.193 137.948C209.193 136.01 207.627 134.439 205.696 134.439C203.765 134.439 202.199 136.01 202.199 137.948C202.199 139.886 203.765 141.457 205.696 141.457Z" fill="white"/>
<path d="M250.851 110.955C250.851 110.955 250.729 110.955 250.492 110.955H245.305L230.179 111.032L180.272 111.385L173.054 111.443H171.28C170.978 111.431 170.675 111.451 170.377 111.501C170.072 111.561 169.781 111.678 169.519 111.848C168.996 112.187 168.613 112.705 168.443 113.307C168.315 113.898 168.213 114.451 168.097 115.023C167.207 119.522 166.343 123.911 165.536 128.063C163.903 136.379 162.43 143.867 161.187 150.152C159.945 156.438 158.972 161.528 158.28 165.05C157.947 166.805 157.684 168.167 157.505 169.105L157.313 170.159C157.268 170.397 157.255 170.519 157.255 170.519C157.255 170.519 157.287 170.404 157.339 170.166L157.563 169.118C157.755 168.18 158.03 166.824 158.395 165.076C159.1 161.554 160.124 156.47 161.392 150.197C162.66 143.925 164.146 136.424 165.805 128.121C166.631 123.963 167.502 119.599 168.366 115.081C168.482 114.515 168.591 113.93 168.712 113.384C168.86 112.853 169.197 112.396 169.66 112.099C169.894 111.951 170.152 111.847 170.422 111.79C170.704 111.746 170.989 111.729 171.274 111.739H173.048L180.272 111.674L230.172 111.231L245.299 111.064L249.416 111.006H250.486L250.851 110.955Z" fill="#233237"/>
<path d="M51.4794 105.736C48.636 107.368 36.6667 114.444 26.7724 122.973C26.9517 122.973 27.1311 122.928 27.3232 122.915C32.376 122.645 16.4362 151.014 16.4362 151.014L25.6517 161.457C25.6517 161.457 15.4052 158.347 22.5841 169.24C27.0222 170.526 33.9258 170.429 40.1954 168.964C46.465 167.499 52.0685 164.697 54.0026 160.545C47.2975 151.611 41.9757 141.643 41.9757 130.794C41.9757 119.393 47.8546 112.073 55.0464 107.895C53.8182 107.243 52.6273 106.522 51.4794 105.736V105.736ZM34.6046 133.822C33.0855 140.073 33.046 146.595 34.4893 152.865C34.2782 152.965 34.0748 153.081 33.881 153.212C31.9982 147.98 30.1217 142.768 27.5473 141.997C30.9479 141.495 33.2918 137.151 34.6046 133.822V133.822Z" fill="#607BB0"/>
<path d="M16.4616 151.014L16.2183 150.789C15.9365 150.525 15.4434 150.03 14.8542 149.368C12.1773 146.348 7.55358 139.728 12.4335 133.879L13.3941 138.378C13.3941 138.378 13.3941 126.045 20.3553 125.492L20.2208 128.648C20.2208 128.648 22.142 123.564 26.7722 122.947C26.9515 122.947 27.1308 122.902 27.3229 122.889C32.3758 122.645 16.4616 151.014 16.4616 151.014Z" fill="#607BB0"/>
<path d="M34.6046 133.822C33.0855 140.073 33.046 146.595 34.4893 152.865C34.2782 152.965 34.0748 153.081 33.8809 153.212C31.9981 147.98 30.1217 142.768 27.5473 141.997C30.9479 141.495 33.2918 137.151 34.6046 133.822Z" fill="#365AA1"/>
<path d="M91.7818 90.2164C91.9299 89.5914 90.8783 88.8052 89.4331 88.4605C87.9878 88.1158 86.6963 88.343 86.5482 88.968C86.4002 89.5931 87.4518 90.3793 88.897 90.724C90.3422 91.0687 91.6338 90.8415 91.7818 90.2164Z" fill="#543419"/>
<path d="M97.9344 95.832C98.5332 95.6307 99.1513 95.4929 99.7787 95.4207H99.8108C100.152 95.3095 100.448 95.0916 100.657 94.799C100.865 94.5064 100.975 94.1544 100.97 93.7947C100.893 92.9334 100.073 91.7059 97.6334 89.9771C97.6334 89.9771 97.089 89.4758 96.2565 88.7624C95.8594 88.4217 95.4048 88.0426 94.9116 87.6377C94.4185 87.2328 93.7333 86.6993 93.1121 86.243C91.5815 85.1183 90.0125 84.1478 89.0263 84.0193C86.0804 83.563 79.8365 86.6543 76.1669 88.6724C74.457 89.6107 73.2979 90.3177 73.2979 90.3177C73.2979 90.3177 73.4772 90.2149 73.4196 90.8961C73.3945 92.3902 73.6441 93.8761 74.156 95.2793C75.5201 99.4889 78.8374 104.92 84.8316 106.751C93.3555 109.322 97.6398 102.741 97.6398 102.741C96.122 101.456 95.2895 100.009 95.3023 98.7434C95.3151 97.4773 96.154 96.4361 97.9344 95.832ZM88.2898 86.2752C88.4179 86.3394 87.7391 84.9898 87.9952 85.054C91.7265 86.2533 94.9998 88.5756 97.3708 91.7059C97.3708 91.7059 95.6865 90.1185 90.5953 91.0311C86.5607 91.7573 82.3212 92.1301 81.5271 90.2791C80.9508 88.9423 85.6321 87.1621 88.2898 86.2752ZM87.2204 106.25C86.0845 106.063 84.9989 105.645 84.0306 105.02C83.0624 104.396 82.2321 103.578 81.5912 102.619C88.2898 107.156 93.7589 104.155 93.7589 104.155C93.7589 104.155 92.1643 107.176 87.2204 106.25V106.25ZM94.7323 101.995C94.7323 101.995 92.7727 104.868 87.246 103.981C80.1438 102.844 76.2117 94.9386 75.0782 92.3036C77.0379 95.1314 86.3878 93.2419 90.8771 92.3807C97.5053 91.0954 99.4457 94.6944 99.4457 94.6944C99.4457 94.6944 90.3583 94.9129 94.7323 101.995V101.995Z" fill="#F3934C"/>
<path d="M99.4523 94.6944C99.4523 94.6944 97.5311 91.1017 90.8836 92.3807C86.4008 93.2419 77.0444 95.1314 75.0848 92.3036C76.2119 94.9386 80.144 102.844 87.2525 103.981C92.7792 104.868 94.7389 101.995 94.7389 101.995C90.3585 94.9129 99.4523 94.6944 99.4523 94.6944ZM80.8805 99.0004C81.6233 97.8243 89.7821 100.286 91.9851 102.921C89.3339 103.814 84.7421 104.142 80.8741 99.0004H80.8805Z" fill="#543419"/>
<path d="M90.6148 91.0311C95.706 90.1185 97.3903 91.7059 97.3903 91.7059C95.0193 88.5757 91.7461 86.2533 88.0148 85.0541C87.7586 84.9705 88.4374 86.3395 88.3093 86.2752C85.6517 87.1621 80.9703 88.9424 81.5466 90.2792C82.3215 92.1301 86.561 91.7509 90.6148 91.0311ZM89.0138 88.9616C90.0705 89.1416 90.903 89.6043 90.8646 89.9964C90.8261 90.3884 89.9424 90.5491 88.8857 90.3691C87.829 90.1892 86.9965 89.7265 87.0285 89.328C87.0605 88.9295 87.9379 88.7753 88.9946 88.9616H89.0138Z" fill="#F8BD72"/>
<path d="M80.8741 99.0004C84.7165 104.142 89.3531 103.814 91.9787 102.921C89.7757 100.305 81.649 97.8243 80.8741 99.0004Z" fill="#E30613"/>
<path d="M93.9577 103.319L90.5379 104.817L85.5171 104.174C85.5171 104.174 81.22 102.073 81.1431 102.156C81.0663 102.24 82.5264 105.061 82.5264 105.061L88.1108 106.989L93.471 105.974L93.9577 103.319Z" fill="#F3934C"/>
<path d="M83.7238 109.939C82.9079 109.689 82.1549 109.267 81.5153 108.7C80.8758 108.134 80.3645 107.436 80.0158 106.655C84.979 110.563 87.1243 109.027 87.1243 109.027C86.5224 110.216 84.7676 110.286 83.7238 109.939Z" fill="white"/>
</svg>
